PathFileType	4	(X/Y/Z)	OpenSim_Sub01_EMGBaseline_Gyro.trc
DataRate	CameraRate	NumFrames	NumMarkers	Units	OrigDataRate	OrigDataStartFrame	OrigNumFrames
100	100	30	8	m	100	5704	7604
Frame#	Time	torso_imu_offset_imu	pelvis_imu_offset_imu	tibia_r_imu_offset_imu	femur_r_imu_offset_imu	tibia_l_imu_offset_imu	femur_l_imu_offset_imu	toes_r_imu_offset_imu	toes_l_imu_offset_imu
				X1	Y1	Z1	X2	Y2	Z2	X3	Y3	Z3	X4	Y4	Z4	X5	Y5	Z5	X6	Y6	Z6	X7	Y7	Z7	X8		Y8	Z8	

5704	57.03000000	0.14471799	-0.08464135	0.02749374	0.11333810	0.00629678	-0.12244424	-0.46266546	-0.34965467	-0.61665894	0.00170741	-0.02670068	-0.82246195	-0.33283770	-0.55501293	-3.79308100	-1.28767365	0.16983137	-0.50533089	-0.00642957	-0.11888230	-0.13199856	0.74748566	5.14067376	-0.55668437
5705	57.04000000	0.11495450	-0.06163301	0.01460164	0.08301615	0.01808635	-0.10233032	-0.30337430	-0.36638173	-0.59397936	0.01958010	-0.03538441	-0.83000252	0.04477252	-0.53119701	-3.97149570	-1.16348301	0.13766586	-0.35553848	0.01208798	-0.10288172	-0.15599980	0.82862117	5.20446725	-0.62812923
5706	57.05000000	0.08866794	-0.04749321	0.00311504	0.05835574	0.03731450	-0.09314633	-0.13670959	-0.35413835	-0.59298435	0.05468633	-0.04589564	-0.82915966	0.35152779	-0.55963625	-4.19328592	-0.98796935	0.07336857	-0.22620806	0.01860414	-0.09093843	-0.16896979	0.81500347	5.21969946	-0.71702355
5707	57.06000000	0.06672391	-0.04367048	-0.00736864	0.04042142	0.06105692	-0.09341444	-0.00979848	-0.32199853	-0.61091188	0.10358009	-0.05521666	-0.82056679	0.49457128	-0.63799757	-4.43971068	-0.76052088	-0.02477507	-0.12248052	0.01226767	-0.08712256	-0.17165353	0.73074320	5.20278944	-0.82426882
5708	57.07000000	0.04717051	-0.04552064	-0.01826246	0.02603749	0.08176222	-0.10023251	0.03959193	-0.29471942	-0.62703343	0.15955963	-0.06048847	-0.80969939	0.42443190	-0.74481001	-4.65442077	-0.49678103	-0.13011311	-0.03958825	-0.00089308	-0.09378414	-0.17458973	0.65872878	5.16285445	-0.95564844
5709	57.08000000	0.02792646	-0.04852145	-0.03038063	0.01149233	0.09492204	-0.11019930	-0.00707215	-0.28705176	-0.62735519	0.21616551	-0.06025400	-0.80197031	0.13322146	-0.85074285	-4.79849498	-0.21180028	-0.22318844	0.03066024	-0.01590034	-0.11127328	-0.18409922	0.66045255	5.10494490	-1.11067988
5710	57.09000000	0.00674150	-0.04897860	-0.04268057	-0.00819395	0.10542372	-0.11853921	-0.11188988	-0.28281422	-0.61926810	0.26790712	-0.05720957	-0.80223620	-0.26670409	-0.90457368	-4.88767264	0.08237520	-0.30809102	0.10587285	-0.03142391	-0.13412899	-0.19322108	0.72933733	5.02258499	-1.26988866
5711	57.10000000	-0.01852385	-0.04362622	-0.05381587	-0.03771457	0.11922936	-0.12049069	-0.22737332	-0.26169792	-0.61370422	0.30944144	-0.05476408	-0.81475334	-0.64332163	-0.85645393	-4.94748968	0.37415569	-0.39259466	0.20456972	-0.04682761	-0.15610964	-0.19320221	0.84356581	4.90834299	-1.41037216
5712	57.11000000	-0.04788370	-0.03331857	-0.06303075	-0.07396460	0.13238975	-0.11530414	-0.31870586	-0.22720453	-0.61542122	0.33495344	-0.05549823	-0.83633347	-0.90297480	-0.73765377	-4.99885417	0.65046995	-0.47445405	0.33287057	-0.06176931	-0.17536856	-0.18521547	0.94159193	4.77236971	-1.51047269
5713	57.12000000	-0.07971578	-0.02208056	-0.07002447	-0.10783813	0.13332858	-0.10531825	-0.36083641	-0.20115923	-0.62442277	0.33826702	-0.06135445	-0.85805842	-0.98158228	-0.64186323	-5.05909502	0.89710303	-0.54371182	0.48735140	-0.07613369	-0.19344345	-0.17807304	0.93132085	4.63834936	-1.54950621
5714	57.13000000	-0.11195954	-0.01272024	-0.07497051	-0.13270511	0.11377552	-0.09278236	-0.34380718	-0.19805755	-0.63928782	0.31621425	-0.07336962	-0.87210518	-0.86921547	-0.63051266	-5.12335271	1.09553428	-0.59110403	0.66723254	-0.09037119	-0.21346233	-0.17843817	0.76556237	4.52805224	-1.52714321
5715	57.14000000	-0.14137723	-0.00418744	-0.07941677	-0.14975118	0.07586669	-0.07944419	-0.30176246	-0.20921488	-0.65472525	0.27459333	-0.08993844	-0.87434287	-0.71459576	-0.66440427	-5.12111011	1.21453643	-0.61001685	0.88032109	-0.10659608	-0.24301992	-0.18600496	0.53289197	4.45652723	-1.50346164
5716	57.15000000	-0.16469175	0.00522081	-0.08511957	-0.16182717	0.02349894	-0.06687305	-0.27552748	-0.22175894	-0.66544647	0.22050068	-0.10902927	-0.86156563	-0.68479337	-0.68859312	-4.97475118	1.22302852	-0.59353774	1.13291810	-0.12699319	-0.29007569	-0.19880317	0.34250636	4.43204275	-1.54563165
5717	57.16000000	-0.18129385	0.01630176	-0.09315089	-0.17507944	-0.04187338	-0.05535647	-0.28388965	-0.22428335	-0.67690715	0.15565380	-0.12953935	-0.83419444	-0.78253907	-0.69088976	-4.68207576	1.12727074	-0.52295352	1.38503454	-0.15020088	-0.35568996	-0.20923868	0.23657203	4.38000581	-1.65983125
5718	57.17000000	-0.19262752	0.02915531	-0.10405572	-0.19818717	-0.12067155	-0.04419545	-0.32866338	-0.20651490	-0.70283073	0.07763414	-0.15107907	-0.79544265	-0.88408552	-0.69200926	-4.29893101	0.96226142	-0.37048529	1.56106120	-0.17212843	-0.43561234	-0.20539131	0.20565418	4.16208517	-1.80528938
5719	57.18000000	-0.19950924	0.04362579	-0.11801126	-0.23456466	-0.20723493	-0.03298559	-0.40033222	-0.16444889	-0.75290749	-0.00991109	-0.17062406	-0.74913043	-0.90319265	-0.70190611	-3.87205463	0.75433163	-0.13260681	1.60302611	-0.19001068	-0.52588747	-0.17952057	0.23728929	3.70285511	-1.94376240
5720	57.19000000	-0.20073383	0.05885151	-0.13414218	-0.27178836	-0.27768756	-0.02227305	-0.45700817	-0.11262031	-0.82421159	-0.08499459	-0.17726654	-0.70066764	-0.87473780	-0.69604549	-3.41667939	0.50186164	0.12145026	1.50808767	-0.20522972	-0.62384235	-0.13663628	0.31395843	3.11868063	-2.04810520
5721	57.20000000	-0.19478390	0.07383163	-0.15130522	-0.29501657	-0.30636510	-0.01275306	-0.45341023	-0.06838110	-0.91147152	-0.12285573	-0.15966518	-0.65549708	-0.84925038	-0.64543480	-2.93865151	0.20441861	0.31130913	1.28419768	-0.21972246	-0.72708138	-0.08444004	0.41507909	2.54978911	-2.09253109
5722	57.21000000	-0.18106240	0.08743661	-0.16725948	-0.29703875	-0.29123581	-0.00472093	-0.38304100	-0.03994456	-1.00921972	-0.10797345	-0.12180031	-0.61515692	-0.77639953	-0.54979211	-2.39052262	-0.04334676	0.39110746	0.94829606	-0.23225360	-0.83381161	-0.03563846	0.48821451	1.96288638	-2.04087578
5723	57.22000000	-0.15968213	0.09843847	-0.17891975	-0.27652036	-0.24845921	0.00183537	-0.26926218	-0.02848798	-1.11183887	-0.03194725	-0.07944351	-0.57817812	-0.52829251	-0.43092974	-1.68385333	-0.07366341	0.34156554	0.52425265	-0.23914773	-0.94270518	-0.00678676	0.45643270	1.19117681	-1.84899458
5724	57.23000000	-0.13248936	0.10640297	-0.18397664	-0.23428127	-0.19323774	0.00627325	-0.14069075	-0.03363328	-1.21525724	0.10292775	-0.04415858	-0.54110986	-0.08197602	-0.30161033	-0.77599517	0.18345924	0.16181076	0.05057686	-0.23910693	-1.05401448	-0.00897408	0.27699942	0.16506744	-1.48352289
5725	57.24000000	-0.10642707	0.11326210	-0.18249068	-0.17709392	-0.13653940	0.00598146	-0.03927715	-0.05091842	-1.32000722	0.26311947	-0.01410503	-0.49484255	0.26775544	-0.14601731	0.23650311	0.50187583	-0.09636616	-0.39125124	-0.23808423	-1.17265184	-0.03675345	0.01066875	-0.88600050	-0.94373836
5726	57.25000000	-0.08909224	0.12121782	-0.17494945	-0.11347315	-0.08794276	-0.00160425	-0.00682766	-0.07491514	-1.42733221	0.40990449	0.01474775	-0.42975832	0.19702350	0.05125618	1.22539218	0.61486919	-0.37148633	-0.71530698	-0.24279582	-1.30421137	-0.08182645	-0.26537243	-1.69119593	-0.24400550
5727	57.26000000	-0.08376763	0.12996612	-0.16167475	-0.06153869	-0.04795090	-0.01289930	-0.04610539	-0.09703548	-1.53637727	0.51329636	0.04211906	-0.34428798	-0.17420703	0.22042466	1.97316654	0.46788421	-0.60279607	-0.88803608	-0.25131730	-1.45159691	-0.13897558	-0.51434570	-2.18762734	0.46586938
5728	57.27000000	-0.09041256	0.13727474	-0.14286129	-0.04679249	-0.01008495	-0.01958894	-0.12982113	-0.10626437	-1.64467135	0.55004322	0.06441332	-0.24305878	-0.38445217	0.22618364	2.19375461	0.16969847	-0.73012736	-0.91620281	-0.25507713	-1.61564133	-0.20535546	-0.73056782	-2.47246912	0.93189255
5729	57.28000000	-0.10573831	0.14197788	-0.11938217	-0.07953480	0.02645243	-0.01751137	-0.23411517	-0.09844395	-1.74865179	0.50879348	0.08319719	-0.13154291	-0.16538818	0.01410995	1.78973611	-0.15357814	-0.72967045	-0.81260040	-0.25109199	-1.79715022	-0.27888665	-0.89402522	-2.63843196	0.99825208
5730	57.29000000	-0.11705898	0.14622606	-0.09413604	-0.12433093	0.04504280	-0.01520656	-0.34761539	-0.08997755	-1.84163567	0.41304153	0.11562986	-0.01724959	0.15124409	-0.22487911	1.22949421	-0.33681842	-0.68560656	-0.60485482	-0.25349162	-1.99700637	-0.35958425	-0.93974629	-2.75272839	0.80883901
5731	57.30000000	-0.11104472	0.15266790	-0.07025419	-0.14000467	0.02706565	-0.02327581	-0.46247568	-0.10020372	-1.91698183	0.29195596	0.18055843	0.09242182	0.14808283	-0.26863977	1.05234339	-0.22690625	-0.69320742	-0.32559940	-0.27786583	-2.21671376	-0.44750873	-0.80516174	-2.86968028	0.55895273
5732	57.31000000	-0.09072733	0.16223073	-0.04874564	-0.12599206	-0.02787720	-0.04802526	-0.58906441	-0.13549914	-1.97730523	0.16320914	0.27895055	0.19735091	-0.21334522	-0.10650269	1.29368981	0.04161518	-0.71494308	-0.04135892	-0.31430901	-2.46685792	-0.53760557	-0.58802132	-2.92126522	0.38400852
5733	57.32000000	-0.07173030	0.17451587	-0.02898605	-0.11298453	-0.10615546	-0.09245011	-0.75175798	-0.19225925	-2.03234412	0.03562154	0.39801040	0.30302107	-0.67990723	0.10943241	1.60111429	0.11288899	-0.61111429	0.15527449	-0.33328906	-2.76502400	-0.62088988	-0.50940847	-2.74534370	0.37327409
